# xmcd
#
# Track frame offsets: 
#        150
#        18367
#        35812
#        60497
#        81810
#        102290
#        122595
#        144812
#        164917
#        186087
#        206125
#
# Disc length: 2992 seconds
#
# Revision: 6
# Processed by: cddbd v1.5.2PL0 Copyright (c) Steve Scherf et al.
# Submitted via: ExactAudioCopy v1.3
#
DISCID=960bae0b
DTITLE=James 'J.T.' Taylor - Master Of The Game
DYEAR=1989
DGENRE=Funk
TTITLE0=Sister Rosa
TTITLE1=8 Days A Week
TTITLE2=The House That Jack Built
TTITLE3=Bring Back The Night
TTITLE4=Master Of The Game
TTITLE5=Kiss My Face
TTITLE6=Lay Awake At Night
TTITLE7=Girl You're Mine Now
TTITLE8=Romancia
TTITLE9=All I Want Is Forever
TTITLE10=The Promised Land (From 'Ghostbusters II')
EXTD=
EXTT0=
EXTT1=
EXTT2=
EXTT3=
EXTT4=
EXTT5=
EXTT6=
EXTT7=
EXTT8=
EXTT9=
EXTT10=
PLAYORDER=
